<?xml version="1.0" encoding="utf-8"?>
<!-- Generator: Adobe Illustrator 16.0.3, SVG Export Plug-In . SVG Version: 6.00 Build 0)  -->
<!DOCTYPE svg PUBLIC "-//W3C//DTD SVG 1.1//EN" "http://www.w3.org/Graphics/SVG/1.1/DTD/svg11.dtd">
<svg version="1.1" id="Layer_1" xmlns="http://www.w3.org/2000/svg" xmlns:xlink="http://www.w3.org/1999/xlink" x="0px" y="0px"
	 width="186px" height="53px" viewBox="0 0 186 53" enable-background="new 0 0 186 53" xml:space="preserve">
<g>
	<path fill="#FFFFFF" d="M35.609,13.364l-6.353-4.922l-6.351,4.922l-1.382-1.819l7.733-6.046l7.79,6.046L35.609,13.364z
		 M43.274,46.646V31.771h2.515v10.167c1.214-1.498,2.534-3.371,3.538-5.137c1.901-3.424,2.957-7.116,2.957-11.397
		c0-12.842-10.259-23.276-23.028-23.276c-12.721,0-23.082,10.434-23.082,23.276c0,4.281,1.027,7.973,2.974,11.344
		c1.081,1.818,2.379,3.691,3.623,5.189V31.771h2.515v14.876C8.392,42.098,3.844,34.285,3.844,25.404C3.844,11.385,15.233,0,29.256,0
		c14.071,0,25.359,11.385,25.359,25.404C54.615,34.285,50.119,42.098,43.274,46.646z M33.039,50.605V15.237h2.515v34.779
		C34.805,50.23,33.895,50.444,33.039,50.605z M38.208,49.268V31.771h2.515v16.32C39.884,48.519,39.046,48.894,38.208,49.268z
		 M29.256,50.818c-0.428,0-0.856-0.052-1.284-0.052V15.237h2.515v35.529C30.112,50.767,29.684,50.818,29.256,50.818z M22.905,50.017
		V15.237h2.515v35.314C24.564,50.444,23.815,50.284,22.905,50.017z M17.838,48.091v-16.32h2.515v17.443
		C19.497,48.894,18.641,48.519,17.838,48.091z"/>
	<path fill="#FFFFFF" d="M99.369,12.88h-4.057c0.16-1.581,0.535-3.972,2.244-3.972C99.156,8.908,99.316,11.299,99.369,12.88z
		 M102.099,14.178c-0.054-3.149-0.642-6.568-4.595-6.568c-3.826,0-4.827,4.122-4.827,7.107c0,3.884,1.634,6.474,4.774,6.474
		c2.453,0,3.523-0.999,4.594-3.076l-1.177-0.485c-0.535,0.863-1.284,1.726-2.405,1.726c-2.615,0-3.043-3.021-3.15-5.178H102.099z
		 M90.411,14.231c0-5.81-3.703-6.675-5.247-6.675c-3.736,0-5.289,3.852-5.289,7c0,4.207,2.248,6.635,5.129,6.635
		C87.832,21.191,90.411,18.816,90.411,14.231z M77.519,16.011c0-1.294-0.428-2.483-1.338-3.442
		c-0.857-0.892-1.819-1.216-2.888-1.432c1.336-0.593,3.208-1.807,3.208-4.385c0-1.018-0.428-2.143-1.124-2.947
		C74.041,2.34,72.014,2.34,71.001,2.34c-1.173,0-2.292,0.163-3.451,0.163h-3.242v1.141l1.818,0.322v15.598l-1.818,0.314v1.046h3.083
		c0.633,0,3.503,0.052,4.09,0.052c1.493,0,4.004,0.054,5.448-2.376C77.305,17.899,77.573,17.037,77.519,16.011z M97.397,36.834
		v-1.604l-3.086,0.107c-0.896,0-1.796-0.428-2.768-0.428c-2.588,0-4.622,1.765-4.622,4.444c0,2.25,1.337,3.107,2.193,3.637
		c-1.391,0.849-2.408,1.821-2.408,2.837c0,0.846,0.589,1.375,1.499,1.692c-0.963,0.585-2.083,1.441-2.083,2.778
		c0,1.967,2.458,2.702,4.719,2.702c4.102,0,6.396-2.007,6.396-4.521c0-2.283-1.39-3.022-3.664-3.128l-3.433-0.161
		c-0.216,0-0.917-0.107-0.917-0.54c0-0.379,0.485-0.812,1.025-1.185c0.486,0.158,1.026,0.212,1.512,0.212
		c1.865,0,4.409-1.271,4.409-4.324c0-1.019-0.376-1.716-0.962-2.573L97.397,36.834z M84.631,48.212v-1.115l-1.384-0.317v-8.392
		c0-2.035-1.07-3.373-3.265-3.373c-1.392,0-2.463,0.804-3.427,1.553v-1.605h-0.749l-3.313,0.856v1.068l1.546,0.215v9.73
		l-1.546,0.316v1.063h5.507v-1.115l-1.392-0.317v-8.714c0.749-0.642,1.552-1.179,2.516-1.179c1.5,0,1.5,1.501,1.5,2.197v7.8
		l-1.393,0.265v1.063H84.631z M70.468,48.212v-1.115l-1.546-0.317V31.227l1.599-0.321v-1.121h-6.106v1.174l1.712,0.269v15.605
		l-1.712,0.316v1.063H70.468z M87.51,14.178c0,1.726-0.213,5.701-2.506,5.701c-1.491,0-2.292-2.087-2.292-5.27
		c0-1.514,0.107-5.755,2.506-5.755C87.136,8.854,87.51,12,87.51,14.178z M73.4,7.074c0,3.471-2.08,3.577-3.306,3.577h-1.333V3.859
		c0.64-0.215,1.013-0.321,1.759-0.321C71.481,3.538,73.4,3.966,73.4,7.074z M74.469,15.85c0,1.403-0.481,2.751-1.655,3.398
		c-0.693,0.421-1.599,0.631-2.346,0.631c-0.694,0-1.227-0.105-1.707-0.418v-7.512h1.173C71.748,11.949,74.469,12.207,74.469,15.85z
		 M93.415,39.46c0,1.286-0.211,3.001-1.818,3.001c-1.673,0-1.835-1.821-1.835-3.216c0-1.34,0.108-3.214,1.728-3.214
		C93.204,36.031,93.415,38.013,93.415,39.46z M95.365,49.495c0,1.177-1.687,2.087-3.875,2.087c-1.619,0-2.802-0.697-2.802-1.819
		c0-1.017,0.482-1.604,0.967-2.032c2.754,0.161,3.867,0.268,4.762,0.481C94.943,48.319,95.365,48.587,95.365,49.495z"/>
	<path fill="#FFFFFF" d="M138.988,40.24h-4.059c0.16-1.626,0.535-4.033,2.242-4.033C138.775,36.207,138.936,38.614,138.988,40.24z
		 M132.039,3.041c0-0.964-0.846-1.713-1.809-1.713c-0.908,0-1.645,0.75-1.645,1.713c0,0.963,0.736,1.713,1.699,1.713
		C131.193,4.753,132.039,4.003,132.039,3.041z M133.35,20.921v-1.125l-1.566-0.268V7.809h-0.643l-3.291,0.853v0.907l1.311,0.321
		v9.639l-1.311,0.321v1.071H133.35z M126.215,9.409c0-1.067-0.701-1.547-1.51-1.547c-1.135,0-1.781,0.853-2.645,2.295V7.702h-0.74
		l-3.271,0.854v0.853l1.58,0.267v9.853l-1.58,0.321v1.071h5.955v-1.125l-1.891-0.268v-7.015c0-0.428,0.648-1.767,1.729-2.249
		l1.402,0.75C125.621,10.639,126.27,10.21,126.215,9.409z M115.979,20.921v-1.125l-1.417-0.268v-8.407
		c0-1.926-1.054-3.313-3.177-3.313c-1.463,0-2.545,0.8-3.521,1.546V1.327h-0.681l-3.343,0.695v0.911l1.51,0.321v16.274l-1.563,0.321
		v1.071h5.377v-1.125l-1.301-0.268v-8.621c0.759-0.643,1.518-1.179,2.547-1.179c1.516,0,1.516,1.553,1.516,2.625v7.229l-1.299,0.268
		v1.071H115.979z M130.178,48.28v-1.094l-1.328-0.313v-8.475c0-1.932-1.053-3.234-3.119-3.234c-1.457,0-2.59,0.729-3.563,1.512
		v-8.098h-0.689l-3.377,0.749v0.911l1.527,0.268v16.419l-1.58,0.313v1.043h5.469v-1.094l-1.35-0.313v-8.638
		c0.756-0.65,1.512-1.247,2.537-1.247c1.564,0,1.51,1.572,1.51,2.657v7.332l-1.295,0.26v1.043H130.178z M115.979,48.28v-1.094
		l-1.417-0.313V28.578h-0.685l-3.359,0.749v0.911l1.516,0.16v16.526l-1.568,0.313v1.043H115.979z M141.717,41.539
		c-0.053-3.196-0.643-6.589-4.598-6.589c-3.822,0-4.822,4.098-4.822,7.128c0,3.884,1.633,6.463,4.77,6.463
		c2.457,0,3.525-0.99,4.598-3.064l-1.178-0.485c-0.535,0.863-1.285,1.726-2.406,1.726c-2.615,0-3.043-3.02-3.15-5.178H141.717z
		 M108.568,41.539c-0.055-3.196-0.65-6.589-4.566-6.589c-3.844,0-4.844,4.098-4.844,7.128c0,3.884,1.634,6.463,4.79,6.463
		c2.449,0,3.497-0.99,4.565-3.064l-1.174-0.485c-0.523,0.863-1.258,1.726-2.367,1.726c-2.641,0-3.072-3.02-3.18-5.178H108.568z
		 M105.873,40.24h-4.08c0.162-1.626,0.539-4.033,2.263-4.033C105.664,36.207,105.82,38.614,105.873,40.24z"/>
	<path fill="#FFFFFF" d="M168.895,12.88h-4.08c0.164-1.624,0.549-4.032,2.289-4.032C168.684,8.848,168.842,11.256,168.895,12.88z
		 M182.156,9.37c0-1.042-0.695-1.512-1.553-1.512c-1.123,0-1.713,0.834-2.568,2.263V7.702h-0.74l-3.236,0.833V9.37l1.545,0.264v9.93
		l-1.545,0.313v1.042h5.904v-1.095l-1.873-0.261v-7.063c0-0.433,0.588-1.785,1.658-2.272l1.391,0.757
		C181.566,10.607,182.156,10.175,182.156,9.37z M171.607,14.178c-0.055-3.191-0.641-6.583-4.557-6.583
		c-3.934,0-4.951,4.095-4.951,7.1c0,3.896,1.674,6.485,4.898,6.485c2.424,0,3.49-0.99,4.555-3.08l-1.172-0.492
		c-0.533,0.874-1.275,1.748-2.381,1.748c-2.637,0-3.076-3.057-3.186-5.178H171.607z M160.369,9.473V7.91l-3.055,0.104
		c-0.912,0-1.803-0.419-2.766-0.419c-2.553,0-4.582,1.722-4.582,4.419c0,2.267,1.338,3.148,2.188,3.689
		c-1.385,0.868-2.455,1.795-2.455,2.833c0,0.924,0.641,1.445,1.498,1.705c-0.91,0.625-2.033,1.426-2.033,2.779
		c0,1.983,2.461,2.719,4.689,2.719c4.102,0,6.412-2.015,6.412-4.506c0-2.315-1.4-3.134-3.701-3.188l-3.404-0.109
		c-0.211,0-0.898-0.164-0.898-0.601c0-0.327,0.475-0.764,0.951-1.144c0.48,0.108,1.068,0.216,1.551,0.216
		c1.854,0,4.422-1.35,4.422-4.339c0-1.082-0.373-1.785-0.963-2.646L160.369,9.473z M147.545,20.919v-1.095l-1.389-0.261v-8.469
		c0-2.089-1.068-3.34-3.244-3.34c-1.379,0-2.439,0.729-3.395,1.512V7.702h-0.748l-3.318,0.833V9.58l1.553,0.163v9.821l-1.553,0.313
		v1.042h5.5v-1.095l-1.328-0.261V10.77c0.691-0.649,1.486-1.244,2.441-1.244c1.486,0,1.486,1.568,1.486,2.217v7.873l-1.381,0.261
		v1.042H147.545z M170.914,48.276v-1.124l-1.492-0.321v-8.453c0-2.141-1.316-3.211-3.348-3.211c-1.533,0-2.684,0.749-3.713,1.765
		c-0.523-1.123-1.676-1.711-2.959-1.711c-1.285,0-2.518,0.588-3.568,1.552v-1.769h-0.695l-3.354,0.858v0.91l1.535,0.268v9.845
		l-1.535,0.321v1.07h5.367v-1.124l-1.215-0.321v-8.614c0.627-0.588,1.322-1.23,2.5-1.23c1.346,0,1.672,1.23,1.672,2.247v7.651
		l-1.512,0.321v1.07h5.34v-1.124l-1.314-0.321v-8.561c0.768-0.696,1.479-1.284,2.576-1.284c1.479,0,1.588,1.498,1.588,2.193v7.705
		l-1.424,0.321v1.07H170.914z M148.307,30.274c0-0.902-0.707-1.696-1.67-1.696c-0.91,0-1.762,0.794-1.762,1.748
		c0,0.901,0.799,1.696,1.762,1.696C147.545,32.022,148.307,31.228,148.307,30.274z M149.646,48.276v-1.124l-1.512-0.321V35.167
		h-0.643l-3.359,0.856v0.855l1.379,0.321v9.685l-1.379,0.321v1.07H149.646z M156.352,12.123c0,1.352-0.207,2.986-1.748,2.986
		c-1.654,0-1.867-1.742-1.867-3.203c0-1.353,0.105-3.162,1.76-3.162C156.195,8.744,156.352,10.662,156.352,12.123z M158.33,22.209
		c0,1.192-1.713,2.112-3.887,2.112c-1.602,0-2.766-0.65-2.766-1.841c0-1.029,0.529-1.561,1.006-2.03
		c2.723,0.157,3.828,0.313,4.736,0.47C157.955,21.023,158.33,21.288,158.33,22.209z"/>
</g>
</svg>
