<?xml version="1.0" encoding="utf-8"?>
<!-- Generator: Adobe Illustrator 22.0.1, SVG Export Plug-In . SVG Version: 6.00 Build 0)  -->
<svg version="1.1" id="Layer_1" xmlns="http://www.w3.org/2000/svg" xmlns:xlink="http://www.w3.org/1999/xlink" x="0px" y="0px"
	 viewBox="0 0 186 53" style="enable-background:new 0 0 186 53;" xml:space="preserve">
<style type="text/css">
	.st0{fill:#046C73;}
</style>
<g>
	<path class="st0" d="M35.6,13.4l-6.4-4.9l-6.4,4.9l-1.4-1.8l7.7-6l7.8,6L35.6,13.4z M43.3,46.6V31.8h2.5v10.2
		c1.2-1.5,2.5-3.4,3.5-5.1c1.9-3.4,3-7.1,3-11.4c0-12.8-10.3-23.3-23-23.3C16.5,2.1,6.2,12.6,6.2,25.4c0,4.3,1,8,3,11.3
		c1.1,1.8,2.4,3.7,3.6,5.2V31.8h2.5v14.9C8.4,42.1,3.8,34.3,3.8,25.4C3.8,11.4,15.2,0,29.3,0c14.1,0,25.4,11.4,25.4,25.4
		C54.6,34.3,50.1,42.1,43.3,46.6z M33,50.6V15.2h2.5V50C34.8,50.2,33.9,50.4,33,50.6z M38.2,49.3V31.8h2.5v16.3
		C39.9,48.5,39,48.9,38.2,49.3z M29.3,50.8c-0.4,0-0.9-0.1-1.3-0.1V15.2h2.5v35.5C30.1,50.8,29.7,50.8,29.3,50.8z M22.9,50V15.2h2.5
		v35.3C24.6,50.4,23.8,50.3,22.9,50z M17.8,48.1V31.8h2.5v17.4C19.5,48.9,18.6,48.5,17.8,48.1z"/>
	<path class="st0" d="M99.4,12.9h-4.1c0.2-1.6,0.5-4,2.2-4C99.2,8.9,99.3,11.3,99.4,12.9z M102.1,14.2c-0.1-3.1-0.6-6.6-4.6-6.6
		c-3.8,0-4.8,4.1-4.8,7.1c0,3.9,1.6,6.5,4.8,6.5c2.5,0,3.5-1,4.6-3.1l-1.2-0.5c-0.5,0.9-1.3,1.7-2.4,1.7c-2.6,0-3-3-3.2-5.2
		C95.3,14.2,102.1,14.2,102.1,14.2z M90.4,14.2c0-5.8-3.7-6.7-5.2-6.7c-3.7,0-5.3,3.9-5.3,7c0,4.2,2.2,6.6,5.1,6.6
		C87.8,21.2,90.4,18.8,90.4,14.2z M77.5,16c0-1.3-0.4-2.5-1.3-3.4c-0.9-0.9-1.8-1.2-2.9-1.4c1.3-0.6,3.2-1.8,3.2-4.4
		c0-1-0.4-2.1-1.1-2.9C74,2.3,72,2.3,71,2.3c-1.2,0-2.3,0.2-3.5,0.2h-3.2v1.1L66.1,4v15.6l-1.8,0.3v1h3.1c0.6,0,3.5,0.1,4.1,0.1
		c1.5,0,4,0.1,5.4-2.4C77.3,17.9,77.6,17,77.5,16z M97.4,36.8v-1.6l-3.1,0.1c-0.9,0-1.8-0.4-2.8-0.4c-2.6,0-4.6,1.8-4.6,4.4
		c0,2.3,1.3,3.1,2.2,3.6c-1.4,0.8-2.4,1.8-2.4,2.8c0,0.8,0.6,1.4,1.5,1.7c-1,0.6-2.1,1.4-2.1,2.8c0,2,2.5,2.7,4.7,2.7
		c4.1,0,6.4-2,6.4-4.5c0-2.3-1.4-3-3.7-3.1l-3.4-0.2c-0.2,0-0.9-0.1-0.9-0.5c0-0.4,0.5-0.8,1-1.2c0.5,0.2,1,0.2,1.5,0.2
		c1.9,0,4.4-1.3,4.4-4.3c0-1-0.4-1.7-1-2.6L97.4,36.8z M84.6,48.2v-1.1l-1.4-0.3v-8.4c0-2-1.1-3.4-3.3-3.4c-1.4,0-2.5,0.8-3.4,1.6
		V35h-0.7l-3.3,0.9v1.1l1.5,0.2v9.7l-1.5,0.3v1.1H78v-1.1l-1.4-0.3v-8.7c0.7-0.6,1.6-1.2,2.5-1.2c1.5,0,1.5,1.5,1.5,2.2v7.8
		l-1.4,0.3v1.1L84.6,48.2L84.6,48.2z M70.5,48.2v-1.1l-1.5-0.3V31.2l1.6-0.3v-1.1h-6.1V31l1.7,0.3v15.6l-1.7,0.3v1.1H70.5z
		 M87.5,14.2c0,1.7-0.2,5.7-2.5,5.7c-1.5,0-2.3-2.1-2.3-5.3c0-1.5,0.1-5.8,2.5-5.8C87.1,8.9,87.5,12,87.5,14.2z M73.4,7.1
		c0,3.5-2.1,3.6-3.3,3.6h-1.3V3.9c0.6-0.2,1-0.3,1.8-0.3C71.5,3.5,73.4,4,73.4,7.1z M74.5,15.9c0,1.4-0.5,2.8-1.7,3.4
		c-0.7,0.4-1.6,0.6-2.3,0.6c-0.7,0-1.2-0.1-1.7-0.4v-7.5h1.2C71.7,11.9,74.5,12.2,74.5,15.9z M93.4,39.5c0,1.3-0.2,3-1.8,3
		c-1.7,0-1.8-1.8-1.8-3.2c0-1.3,0.1-3.2,1.7-3.2C93.2,36,93.4,38,93.4,39.5z M95.4,49.5c0,1.2-1.7,2.1-3.9,2.1
		c-1.6,0-2.8-0.7-2.8-1.8c0-1,0.5-1.6,1-2c2.8,0.2,3.9,0.3,4.8,0.5C94.9,48.3,95.4,48.6,95.4,49.5z"/>
	<path class="st0" d="M139,40.2h-4.1c0.2-1.6,0.5-4,2.2-4C138.8,36.2,138.9,38.6,139,40.2z M132,3c0-1-0.8-1.7-1.8-1.7
		c-0.9,0-1.6,0.8-1.6,1.7s0.7,1.7,1.7,1.7C131.2,4.8,132,4,132,3z M133.4,20.9v-1.1l-1.6-0.3V7.8h-0.6l-3.3,0.9v0.9l1.3,0.3v9.6
		l-1.3,0.3v1.1C127.9,20.9,133.4,20.9,133.4,20.9z M126.2,9.4c0-1.1-0.7-1.5-1.5-1.5c-1.1,0-1.8,0.9-2.6,2.3V7.7h-0.7L118,8.6v0.9
		l1.6,0.3v9.9l-1.6,0.3v1.1h6v-1.1l-1.9-0.3v-7c0-0.4,0.6-1.8,1.7-2.2l1.4,0.8C125.6,10.6,126.3,10.2,126.2,9.4z M116,20.9v-1.1
		l-1.4-0.3v-8.4c0-1.9-1.1-3.3-3.2-3.3c-1.5,0-2.5,0.8-3.5,1.5v-8h-0.7L103.8,2v0.9l1.5,0.3v16.3l-1.6,0.3v1.1h5.4v-1.1l-1.3-0.3
		v-8.6c0.8-0.6,1.5-1.2,2.5-1.2c1.5,0,1.5,1.6,1.5,2.6v7.2l-1.3,0.3v1.1L116,20.9L116,20.9z M130.2,48.3v-1.1l-1.3-0.3v-8.5
		c0-1.9-1.1-3.2-3.1-3.2c-1.5,0-2.6,0.7-3.6,1.5v-8.1h-0.7l-3.4,0.7v0.9l1.5,0.3v16.4l-1.6,0.3v1h5.5v-1.1l-1.3-0.3v-8.6
		c0.8-0.7,1.5-1.2,2.5-1.2c1.6,0,1.5,1.6,1.5,2.7V47l-1.3,0.3v1L130.2,48.3L130.2,48.3z M116,48.3v-1.1l-1.4-0.3V28.6h-0.7l-3.4,0.7
		v0.9l1.5,0.2v16.5l-1.6,0.3v1C110.5,48.3,116,48.3,116,48.3z M141.7,41.5c-0.1-3.2-0.6-6.6-4.6-6.6c-3.8,0-4.8,4.1-4.8,7.1
		c0,3.9,1.6,6.5,4.8,6.5c2.5,0,3.5-1,4.6-3.1l-1.2-0.5c-0.5,0.9-1.3,1.7-2.4,1.7c-2.6,0-3-3-3.1-5.2L141.7,41.5L141.7,41.5z
		 M108.6,41.5c-0.1-3.2-0.7-6.6-4.6-6.6c-3.8,0-4.8,4.1-4.8,7.1c0,3.9,1.6,6.5,4.8,6.5c2.4,0,3.5-1,4.6-3.1l-1.2-0.5
		c-0.5,0.9-1.3,1.7-2.4,1.7c-2.6,0-3.1-3-3.2-5.2L108.6,41.5L108.6,41.5z M105.9,40.2h-4.1c0.2-1.6,0.5-4,2.3-4
		C105.7,36.2,105.8,38.6,105.9,40.2z"/>
	<path class="st0" d="M168.9,12.9h-4.1c0.2-1.6,0.5-4,2.3-4C168.7,8.8,168.8,11.3,168.9,12.9z M182.2,9.4c0-1-0.7-1.5-1.6-1.5
		c-1.1,0-1.7,0.8-2.6,2.3V7.7h-0.7l-3.2,0.8v0.8l1.5,0.3v9.9l-1.5,0.3v1h5.9v-1.1l-1.9-0.3v-7.1c0-0.4,0.6-1.8,1.7-2.3l1.4,0.8
		C181.6,10.6,182.2,10.2,182.2,9.4z M171.6,14.2c-0.1-3.2-0.6-6.6-4.6-6.6c-3.9,0-5,4.1-5,7.1c0,3.9,1.7,6.5,4.9,6.5
		c2.4,0,3.5-1,4.6-3.1l-1.2-0.5c-0.5,0.9-1.3,1.7-2.4,1.7c-2.6,0-3.1-3.1-3.2-5.2C164.8,14.2,171.6,14.2,171.6,14.2z M160.4,9.5V7.9
		L157.3,8c-0.9,0-1.8-0.4-2.8-0.4c-2.6,0-4.6,1.7-4.6,4.4c0,2.3,1.3,3.1,2.2,3.7c-1.4,0.9-2.5,1.8-2.5,2.8c0,0.9,0.6,1.4,1.5,1.7
		c-0.9,0.6-2,1.4-2,2.8c0,2,2.5,2.7,4.7,2.7c4.1,0,6.4-2,6.4-4.5c0-2.3-1.4-3.1-3.7-3.2l-3.4-0.1c-0.2,0-0.9-0.2-0.9-0.6
		c0-0.3,0.5-0.8,1-1.1c0.5,0.1,1.1,0.2,1.6,0.2c1.9,0,4.4-1.4,4.4-4.3c0-1.1-0.4-1.8-1-2.6L160.4,9.5z M147.5,20.9v-1.1l-1.4-0.3
		v-8.5c0-2.1-1.1-3.3-3.2-3.3c-1.4,0-2.4,0.7-3.4,1.5V7.7h-0.7l-3.3,0.8v1l1.6,0.2v9.8l-1.6,0.3v1h5.5v-1.1l-1.3-0.3v-8.8
		c0.7-0.6,1.5-1.2,2.4-1.2c1.5,0,1.5,1.6,1.5,2.2v7.9l-1.4,0.3v1H147.5z M170.9,48.3v-1.1l-1.5-0.3v-8.5c0-2.1-1.3-3.2-3.3-3.2
		c-1.5,0-2.7,0.7-3.7,1.8c-0.5-1.1-1.7-1.7-3-1.7c-1.3,0-2.5,0.6-3.6,1.6V35h-0.7l-3.4,0.9v0.9l1.5,0.3v9.8l-1.5,0.3v1.1h5.4v-1.1
		l-1.2-0.3v-8.6c0.6-0.6,1.3-1.2,2.5-1.2c1.3,0,1.7,1.2,1.7,2.2v7.7l-1.5,0.3v1.1h5.3v-1.1l-1.3-0.3v-8.6c0.8-0.7,1.5-1.3,2.6-1.3
		c1.5,0,1.6,1.5,1.6,2.2v7.7l-1.4,0.3v1.1L170.9,48.3L170.9,48.3z M148.3,30.3c0-0.9-0.7-1.7-1.7-1.7c-0.9,0-1.8,0.8-1.8,1.7
		c0,0.9,0.8,1.7,1.8,1.7C147.5,32,148.3,31.2,148.3,30.3z M149.6,48.3v-1.1l-1.5-0.3V35.2h-0.6l-3.4,0.9v0.9l1.4,0.3v9.7l-1.4,0.3
		v1.1L149.6,48.3L149.6,48.3z M156.4,12.1c0,1.4-0.2,3-1.7,3c-1.7,0-1.9-1.7-1.9-3.2c0-1.4,0.1-3.2,1.8-3.2
		C156.2,8.7,156.4,10.7,156.4,12.1z M158.3,22.2c0,1.2-1.7,2.1-3.9,2.1c-1.6,0-2.8-0.6-2.8-1.8c0-1,0.5-1.6,1-2
		c2.7,0.2,3.8,0.3,4.7,0.5C158,21,158.3,21.3,158.3,22.2z"/>
</g>
</svg>
