<?xml version="1.0" encoding="utf-8"?>
<!-- Generator: Adobe Illustrator 22.0.1, SVG Export Plug-In . SVG Version: 6.00 Build 0)  -->
<svg version="1.1" id="Layer_1" xmlns="http://www.w3.org/2000/svg" xmlns:xlink="http://www.w3.org/1999/xlink" x="0px" y="0px"
	 viewBox="0 0 42 42" style="enable-background:new 0 0 42 42;" xml:space="preserve">
<style type="text/css">
	.st0{fill:none;stroke:#FFFFFF;stroke-width:2;}
	.st1{fill:#FFFFFF;}
</style>
<title>FB_wh</title>
<desc>Created with Sketch.</desc>
<g id="ARTICLE">
	<g id="ARTICLE-Desktop---1024" transform="translate(-701.000000, -908.000000)">
		<g id="SOCIAL" transform="translate(702.000000, 909.000000)">
			<g id="FB_wh">
				<path id="Shape" class="st0" d="M20,40C9,40,0,31,0,20C0,9,9,0,20,0s20,9,20,20C40,31,31,40,20,40z"/>
				<path id="Path" class="st1" d="M17.2,30.9h4.5V20h3l0.4-3.7h-3.4l0-1.9c0-1,0.1-1.5,1.5-1.5H25V9.1h-3c-3.6,0-4.9,1.8-4.9,4.9
					v2.3h-2.2V20h2.2V30.9z"/>
			</g>
		</g>
	</g>
</g>
</svg>
