<?xml version="1.0" encoding="UTF-8" standalone="no"?>
<svg width="42px" height="42px" viewBox="0 0 42 42" version="1.1" xmlns="http://www.w3.org/2000/svg" xmlns:xlink="http://www.w3.org/1999/xlink">
    <!-- Generator: Sketch 50.2 (55047) - http://www.bohemiancoding.com/sketch -->
    <title>FB</title>
    <desc>Created with Sketch.</desc>
    <defs></defs>
    <g id="ARTICLE" stroke="none" stroke-width="1" fill="none" fill-rule="evenodd">
        <g id="ARTICLE-Desktop---1024" transform="translate(-701.000000, -908.000000)">
            <g id="SOCIAL" transform="translate(702.000000, 909.000000)">
                <g id="FB">
                    <path d="M20,40 C8.95466667,40 0,31.0453333 0,20 C0,8.954 8.95466667,0 20,0 C31.0453333,0 40,8.954 40,20 C40,31.0453333 31.0453333,40 20,40 Z" id="Shape" stroke="#595959"></path>
                    <path d="M17.1766667,30.88 L21.6726667,30.88 L21.6726667,19.9986667 L24.672,19.9986667 L25.0693333,16.2493333 L21.6726667,16.2493333 L21.6773333,14.372 C21.6773333,13.3946667 21.7706667,12.87 23.1733333,12.87 L25.048,12.87 L25.048,9.12 L22.048,9.12 C18.4446667,9.12 17.1766667,10.9393333 17.1766667,13.998 L17.1766667,16.2493333 L14.9306667,16.2493333 L14.9306667,19.9993333 L17.1766667,19.9993333 L17.1766667,30.88 Z" id="Path" fill="#595959"></path>
                </g>
            </g>
        </g>
    </g>
</svg>