<svg xmlns="http://www.w3.org/2000/svg" viewBox="0 0 169.2 56.4"><defs><style>.cls-1{fill:#006a71;}.cls-2{fill:#00aca1;}</style></defs><title>Layer 1</title><g id="Layer_2" data-name="Layer 2"><g id="Layer_1-2" data-name="Layer 1"><polygon class="cls-1" points="66.13 0.2 66.13 21.56 78.89 21.56 78.89 26.41 60.36 26.41 60.36 0.2 66.13 0.2"/><path class="cls-1" d="M93.5,26.41V23.76h-.11a5.89,5.89,0,0,1-2.57,2.39,7.53,7.53,0,0,1-3.23.73,9.09,9.09,0,0,1-3.43-.55,5.06,5.06,0,0,1-2.11-1.56A6.15,6.15,0,0,1,81,22.31a15.07,15.07,0,0,1-.31-3.21V7.43h5.21V18.15a6.64,6.64,0,0,0,.73,3.5,2.85,2.85,0,0,0,2.61,1.16,3.58,3.58,0,0,0,3.08-1.27,7,7,0,0,0,1-4.16V7.43h5.21v19Z"/><path class="cls-1" d="M106.56,7.43v2.65h.11a5.94,5.94,0,0,1,2.57-2.41,7.45,7.45,0,0,1,3.23-.75,8.83,8.83,0,0,1,3.43.57A5.1,5.1,0,0,1,118,9.06a6.28,6.28,0,0,1,1.08,2.46,15.2,15.2,0,0,1,.31,3.21V26.41h-5.21V15.69a6.68,6.68,0,0,0-.73-3.51A2.85,2.85,0,0,0,110.85,11a3.62,3.62,0,0,0-3.08,1.26,7,7,0,0,0-1,4.17v10H101.6v-19Z"/><path class="cls-1" d="M140.42,27.8a6.56,6.56,0,0,1-1.34,2.74,8.15,8.15,0,0,1-3,2.15,13,13,0,0,1-5.22.88,12.26,12.26,0,0,1-2.84-.35,9.12,9.12,0,0,1-2.64-1.09,6.41,6.41,0,0,1-2-1.89,5.48,5.48,0,0,1-.89-2.77h5.17a3,3,0,0,0,1.43,2,5.13,5.13,0,0,0,2.46.57,3.78,3.78,0,0,0,3.21-1.32,5.17,5.17,0,0,0,1-3.34v-2.5h-.07a5.07,5.07,0,0,1-2.4,2.22,7.77,7.77,0,0,1-3.29.72,8.32,8.32,0,0,1-3.67-.75,7,7,0,0,1-2.53-2.06,8.66,8.66,0,0,1-1.45-3,14.35,14.35,0,0,1-.46-3.69,12,12,0,0,1,.53-3.55,9.56,9.56,0,0,1,1.56-3,7.45,7.45,0,0,1,6.06-2.84,7.23,7.23,0,0,1,3.28.7A5.63,5.63,0,0,1,135.7,10h.07V7.43h5V25.2a13.13,13.13,0,0,1-.31,2.6m-7.14-6.31a4,4,0,0,0,1.39-1.17,5.13,5.13,0,0,0,.83-1.67,7.1,7.1,0,0,0,.27-2,10.58,10.58,0,0,0-.22-2.22,5.43,5.43,0,0,0-.73-1.85,3.64,3.64,0,0,0-1.36-1.28,4.25,4.25,0,0,0-2.13-.48,3.88,3.88,0,0,0-1.89.44,4.05,4.05,0,0,0-1.32,1.19,5.14,5.14,0,0,0-.77,1.73,8.36,8.36,0,0,0-.24,2,10.69,10.69,0,0,0,.2,2,5.7,5.7,0,0,0,.7,1.82,4.2,4.2,0,0,0,1.3,1.32,3.74,3.74,0,0,0,2,.51,4.18,4.18,0,0,0,1.95-.44"/><path class="cls-1" d="M148.55,22.07a3,3,0,0,0,.9,1,3.77,3.77,0,0,0,1.27.57,6,6,0,0,0,1.48.18,5.94,5.94,0,0,0,1.16-.12,3.91,3.91,0,0,0,1.1-.41,2.64,2.64,0,0,0,.83-.73,1.94,1.94,0,0,0,.33-1.16c0-.78-.52-1.37-1.56-1.76a31.25,31.25,0,0,0-4.35-1.17c-.76-.17-1.5-.38-2.22-.61a7.34,7.34,0,0,1-1.93-.92,4.42,4.42,0,0,1-1.36-1.43,4.07,4.07,0,0,1-.51-2.11,5.78,5.78,0,0,1,.71-3,5.31,5.31,0,0,1,1.89-1.85,8.62,8.62,0,0,1,2.65-1,16.52,16.52,0,0,1,3-.27,15.55,15.55,0,0,1,3,.29,8.06,8.06,0,0,1,2.58,1,6,6,0,0,1,1.89,1.86,6.14,6.14,0,0,1,.9,2.91h-4.95a2.25,2.25,0,0,0-1.14-2,5.11,5.11,0,0,0-2.42-.53,8.35,8.35,0,0,0-1,.05,3.34,3.34,0,0,0-.93.24,2,2,0,0,0-.72.53,1.45,1.45,0,0,0-.29.94,1.42,1.42,0,0,0,.51,1.13,3.87,3.87,0,0,0,1.34.72,16.08,16.08,0,0,0,1.89.49l2.17.48A22.7,22.7,0,0,1,157,16,7.13,7.13,0,0,1,159,17a4.66,4.66,0,0,1,1.35,1.51,4.28,4.28,0,0,1,.52,2.21,6,6,0,0,1-.76,3.14,5.9,5.9,0,0,1-2,2A8.18,8.18,0,0,1,155.34,27a16,16,0,0,1-3.17.31,15.66,15.66,0,0,1-3.23-.33,8.34,8.34,0,0,1-2.81-1.1,6.32,6.32,0,0,1-2-2,6.4,6.4,0,0,1-.86-3.18h4.95a2.88,2.88,0,0,0,.35,1.45"/><path class="cls-2" d="M10,32.66a3.53,3.53,0,0,0,1.14,2.59,4,4,0,0,0,2.93,1.13,6.13,6.13,0,0,0,4.14-1.93L13.6,28.54Q10,30.07,10,32.66"/><path class="cls-2" d="M18,20.65a1.64,1.64,0,0,0-.59-1.25,2,2,0,0,0-1.4-.54,2.17,2.17,0,0,0-1.36.46,1.35,1.35,0,0,0-.58,1.1c0,.45.53,1.35,1.6,2.69C17.24,22.4,18,21.58,18,20.65"/><path class="cls-2" d="M39.54,23.11c1.07-1.34,1.6-2.24,1.6-2.69a1.35,1.35,0,0,0-.58-1.1,2.17,2.17,0,0,0-1.36-.46,2,2,0,0,0-1.4.54,1.64,1.64,0,0,0-.59,1.25c0,.93.78,1.75,2.33,2.46"/><path class="cls-2" d="M44.09,35.25a3.53,3.53,0,0,0,1.14-2.59q0-2.59-3.6-4.12L37,34.45a6.13,6.13,0,0,0,4.14,1.93,4,4,0,0,0,2.93-1.13"/><path class="cls-2" d="M26.36,36.64h2.51l2-2.53a20.25,20.25,0,0,1-2.92-4.63H27.3a19.91,19.91,0,0,1-2.92,4.63Z"/><path class="cls-2" d="M30.85,0,30.7,25.54a26.76,26.76,0,0,0,3,5.1l3.44-4.43c-2.81-1.45-4.21-3.32-4.21-5.59A4.38,4.38,0,0,1,34.76,17a7.4,7.4,0,0,1,4.63-1.42A7.65,7.65,0,0,1,44.05,17,4.71,4.71,0,0,1,46,21a7,7,0,0,1-1.89,4.48,14.8,14.8,0,0,1,5.19,3.69,6.72,6.72,0,0,1,1.49,4.25,7.09,7.09,0,0,1-2.34,5.3A8.7,8.7,0,0,1,42.13,41a11.28,11.28,0,0,1-7.8-3.15l-2.19,2.72h-9L20.9,37.86A11.28,11.28,0,0,1,13.1,41a8.7,8.7,0,0,1-6.29-2.25,7.09,7.09,0,0,1-2.34-5.3A6.72,6.72,0,0,1,6,29.21a14.8,14.8,0,0,1,5.19-3.69A7,7,0,0,1,9.26,21a4.68,4.68,0,0,1,1.92-4,7.65,7.65,0,0,1,4.66-1.42A7.4,7.4,0,0,1,20.47,17a4.36,4.36,0,0,1,1.84,3.61c0,2.27-1.4,4.14-4.21,5.59l3.44,4.43a26.71,26.71,0,0,0,2.94-5V0A27.93,27.93,0,0,0,0,27.91,27.86,27.86,0,0,0,27.62,56a27.86,27.86,0,0,0,27.61-28.1A27.92,27.92,0,0,0,30.85,0"/><path class="cls-1" d="M93.05,43.18a11.42,11.42,0,0,0,.85-3.82l-3.54.06a6.28,6.28,0,0,1-.26,1.81,6.13,6.13,0,0,1-.76,1.59l-3-3.54a8.53,8.53,0,0,0,2.51-2.14,4.74,4.74,0,0,0,.82-3,4.24,4.24,0,0,0-1.51-3.29,5.26,5.26,0,0,0-3.69-1.23A6,6,0,0,0,80.51,31,4.3,4.3,0,0,0,79,34.52a5.07,5.07,0,0,0,.53,2.18,8.61,8.61,0,0,0,1.42,2l-.43.27a10.12,10.12,0,0,0-3,2.69,5.43,5.43,0,0,0-.86,3.2A5.75,5.75,0,0,0,78.57,49a6.58,6.58,0,0,0,5,1.76,8.09,8.09,0,0,0,3.7-.9,9.32,9.32,0,0,0,1.93-1.46l1.46,1.72L95.47,50l-3.82-4.4a10.77,10.77,0,0,0,1.4-2.41M83.4,32.93a1.91,1.91,0,0,1,1-.31,1.63,1.63,0,0,1,1.33.48,1.74,1.74,0,0,1,.45,1.14,2.31,2.31,0,0,1-.7,1.65,7.6,7.6,0,0,1-1.23,1,17,17,0,0,1-1.15-1.43,2.14,2.14,0,0,1-.43-1.17,1.48,1.48,0,0,1,.7-1.38m2.23,14a4.13,4.13,0,0,1-1.88.48,2.93,2.93,0,0,1-2.19-.82,2.62,2.62,0,0,1-.87-1.86A3,3,0,0,1,81.15,43a6.83,6.83,0,0,1,2-1.79l3.93,4.63a5.78,5.78,0,0,1-1.42,1"/><path class="cls-1" d="M96.67,29.86h6.43l6.09,10.3,6.06-10.3h6.39L112,45.92v10h-5.73V45.78Z"/><path class="cls-1" d="M118.21,42.4a8.7,8.7,0,0,1,5-5.15,10.87,10.87,0,0,1,4-.71,11,11,0,0,1,4,.71,8.66,8.66,0,0,1,5.06,5.15,11.66,11.66,0,0,1,.69,4.11,11.51,11.51,0,0,1-.69,4.09,9,9,0,0,1-2,3.12,8.76,8.76,0,0,1-3.08,2,11.21,11.21,0,0,1-4,.69,11.08,11.08,0,0,1-4-.69,8.76,8.76,0,0,1-3.06-2,9,9,0,0,1-2-3.12,11.51,11.51,0,0,1-.69-4.09A11.66,11.66,0,0,1,118.21,42.4Zm4.71,6.32a6.07,6.07,0,0,0,.75,1.93A3.94,3.94,0,0,0,125.08,52a4.28,4.28,0,0,0,2.19.51,4.43,4.43,0,0,0,2.21-.51,4,4,0,0,0,1.42-1.37,6.07,6.07,0,0,0,.75-1.93,11.58,11.58,0,0,0,.22-2.21,11.79,11.79,0,0,0-.22-2.23,5.8,5.8,0,0,0-.75-1.93A4.14,4.14,0,0,0,129.48,41a4.33,4.33,0,0,0-2.21-.53,4.18,4.18,0,0,0-2.19.53,4.11,4.11,0,0,0-1.41,1.37,5.8,5.8,0,0,0-.75,1.93,11.79,11.79,0,0,0-.21,2.23A11.58,11.58,0,0,0,122.92,48.72Z"/><path class="cls-1" d="M153,55.92V53.3h-.11a5.88,5.88,0,0,1-2.56,2.37,7.45,7.45,0,0,1-3.21.73,9,9,0,0,1-3.41-.55,4.86,4.86,0,0,1-2.1-1.55,6.12,6.12,0,0,1-1.08-2.44,15.79,15.79,0,0,1-.31-3.2V37.05h5.19V47.71a6.6,6.6,0,0,0,.73,3.49,2.83,2.83,0,0,0,2.59,1.15,3.58,3.58,0,0,0,3.06-1.26,6.94,6.94,0,0,0,1-4.14v-9.9h5.19V55.92Z"/><path class="cls-1" d="M169.2,10a2.61,2.61,0,0,1-2.65,2.63,2.61,2.61,0,1,1,0-5.22A2.6,2.6,0,0,1,169.2,10Zm-4.66,0a2,2,0,1,0,4,0,2,2,0,1,0-4,0Zm1.59,1.36h-.6V8.79a5.08,5.08,0,0,1,1-.08,1.62,1.62,0,0,1,.9.19.73.73,0,0,1,.25.57.65.65,0,0,1-.53.6v0a.79.79,0,0,1,.47.64,2,2,0,0,0,.19.64h-.65a2.19,2.19,0,0,1-.2-.63c-.05-.28-.21-.41-.54-.41h-.29Zm0-1.47h.28c.34,0,.61-.11.61-.38s-.18-.39-.56-.39a1.83,1.83,0,0,0-.33,0Z"/></g></g></svg>