<?xml version="1.0" encoding="utf-8"?>
<!-- Generator: Adobe Illustrator 22.1.0, SVG Export Plug-In . SVG Version: 6.00 Build 0)  -->
<svg version="1.1" id="Layer_1" xmlns="http://www.w3.org/2000/svg" xmlns:xlink="http://www.w3.org/1999/xlink" x="0px" y="0px"
	 viewBox="0 0 169.2 56.4" style="enable-background:new 0 0 169.2 56.4;" xml:space="preserve">
<style type="text/css">
	.st0{fill:#FFFFFF;}
</style>
<title>Layer 1</title>
<g id="Layer_2_1_">
	<g id="Layer_1-2">
		<polygon class="st0" points="66.1,0.2 66.1,21.6 78.9,21.6 78.9,26.4 60.4,26.4 60.4,0.2 		"/>
		<path class="st0" d="M93.5,26.4v-2.6h-0.1c-0.6,1-1.5,1.9-2.6,2.4c-1,0.5-2.1,0.7-3.2,0.7c-1.2,0-2.3-0.1-3.4-0.5
			c-0.8-0.3-1.6-0.9-2.1-1.6c-0.5-0.7-0.9-1.6-1-2.5c-0.2-1.1-0.3-2.1-0.3-3.2V7.4h5.2v10.7c-0.1,1.2,0.2,2.4,0.7,3.5
			c0.6,0.8,1.6,1.3,2.6,1.2c1.2,0.1,2.3-0.4,3.1-1.3c0.8-1.2,1.1-2.7,1-4.2V7.4h5.2v19L93.5,26.4z"/>
		<path class="st0" d="M106.6,7.4v2.7h0.1c0.6-1,1.5-1.9,2.6-2.4c1-0.5,2.1-0.7,3.2-0.8c1.2,0,2.3,0.2,3.4,0.6
			c0.8,0.3,1.5,0.9,2.1,1.6c0.5,0.7,0.9,1.6,1.1,2.5c0.2,1.1,0.3,2.1,0.3,3.2v11.7h-5.2V15.7c0.1-1.2-0.2-2.4-0.7-3.5
			c-0.6-0.8-1.6-1.3-2.6-1.2c-1.2-0.1-2.3,0.4-3.1,1.3c-0.8,1.3-1.1,2.7-1,4.2v10h-5.2v-19L106.6,7.4z"/>
		<path class="st0" d="M140.4,27.8c-0.2,1-0.7,1.9-1.3,2.7c-0.8,0.9-1.8,1.7-3,2.1c-1.7,0.6-3.4,0.9-5.2,0.9c-1,0-1.9-0.1-2.8-0.3
			c-0.9-0.2-1.8-0.6-2.6-1.1c-0.8-0.5-1.5-1.1-2-1.9c-0.5-0.8-0.8-1.8-0.9-2.8h5.2c0.2,0.8,0.7,1.6,1.4,2c0.8,0.4,1.6,0.6,2.5,0.6
			c1.2,0.1,2.4-0.4,3.2-1.3c0.7-1,1.1-2.1,1-3.3v-2.5h-0.1c-0.5,1-1.4,1.8-2.4,2.2c-1,0.5-2.2,0.7-3.3,0.7c-1.3,0-2.5-0.2-3.7-0.8
			c-1-0.5-1.9-1.2-2.5-2.1c-0.7-0.9-1.2-1.9-1.4-3c-0.3-1.2-0.5-2.4-0.5-3.7c0-1.2,0.2-2.4,0.5-3.6c0.3-1.1,0.9-2.1,1.6-3
			c1.5-1.9,3.7-2.9,6.1-2.8c1.1,0,2.3,0.2,3.3,0.7c1,0.5,1.8,1.4,2.4,2.4h0.1V7.4h5v17.8C140.8,26.1,140.6,26.9,140.4,27.8
			 M133.3,21.5c0.5-0.3,1-0.7,1.4-1.2c0.4-0.5,0.7-1.1,0.8-1.7c0.2-0.7,0.3-1.3,0.3-2c0-0.7-0.1-1.5-0.2-2.2
			c-0.1-0.7-0.4-1.3-0.7-1.9c-0.3-0.5-0.8-1-1.4-1.3c-0.7-0.3-1.4-0.5-2.1-0.5c-0.7,0-1.3,0.1-1.9,0.4c-0.5,0.3-1,0.7-1.3,1.2
			c-0.4,0.5-0.6,1.1-0.8,1.7c-0.2,0.7-0.2,1.3-0.2,2c0,0.7,0.1,1.3,0.2,2c0.1,0.6,0.4,1.3,0.7,1.8c0.3,0.5,0.8,1,1.3,1.3
			c0.6,0.4,1.3,0.5,2,0.5c0.7,0,1.3-0.1,1.9-0.4"/>
		<path class="st0" d="M148.6,22.1c0.2,0.4,0.5,0.7,0.9,1c0.4,0.3,0.8,0.5,1.3,0.6c0.5,0.1,1,0.2,1.5,0.2c0.4,0,0.8,0,1.2-0.1
			c0.4-0.1,0.8-0.2,1.1-0.4c0.3-0.2,0.6-0.4,0.8-0.7c0.2-0.3,0.3-0.7,0.3-1.2c0-0.8-0.5-1.4-1.6-1.8c-1.4-0.5-2.9-0.9-4.4-1.2
			c-0.8-0.2-1.5-0.4-2.2-0.6c-0.7-0.2-1.3-0.5-1.9-0.9c-0.6-0.4-1-0.9-1.4-1.4c-0.4-0.6-0.5-1.4-0.5-2.1c0-1,0.2-2.1,0.7-3
			c0.5-0.8,1.1-1.4,1.9-1.9c0.8-0.5,1.7-0.8,2.6-1c1-0.2,2-0.3,3-0.3c1,0,2,0.1,3,0.3c0.9,0.2,1.8,0.5,2.6,1
			c0.8,0.5,1.4,1.1,1.9,1.9c0.5,0.9,0.8,1.9,0.9,2.9h-4.9c0-0.8-0.4-1.6-1.1-2c-0.8-0.4-1.6-0.6-2.4-0.5c-0.3,0-0.7,0-1,0.1
			c-0.3,0-0.6,0.1-0.9,0.2c-0.3,0.1-0.5,0.3-0.7,0.5c-0.2,0.3-0.3,0.6-0.3,0.9c0,0.4,0.2,0.9,0.5,1.1c0.4,0.3,0.9,0.6,1.3,0.7
			c0.6,0.2,1.3,0.4,1.9,0.5l2.2,0.5c0.8,0.2,1.5,0.4,2.2,0.6c0.7,0.2,1.4,0.6,2,1c0.6,0.4,1,0.9,1.4,1.5c0.4,0.7,0.5,1.4,0.5,2.2
			c0,1.1-0.2,2.2-0.8,3.1c-0.5,0.8-1.2,1.5-2,2c-0.8,0.5-1.8,0.9-2.8,1.1c-1,0.2-2.1,0.3-3.2,0.3c-1.1,0-2.2-0.1-3.2-0.3
			c-1-0.2-1.9-0.6-2.8-1.1c-0.8-0.5-1.5-1.2-2-2c-0.6-1-0.9-2.1-0.9-3.2h4.9C148.2,21.2,148.3,21.7,148.6,22.1"/>
		<path class="st0" d="M10,32.7c0,1,0.4,1.9,1.1,2.6c0.8,0.8,1.8,1.2,2.9,1.1c1.6-0.1,3.1-0.8,4.1-1.9l-4.6-5.9
			C11.2,29.6,10,30.9,10,32.7"/>
		<path class="st0" d="M18,20.6c0-0.5-0.2-0.9-0.6-1.3C17,19,16.5,18.9,16,18.9c-0.5,0-1,0.2-1.4,0.5c-0.4,0.3-0.6,0.7-0.6,1.1
			c0,0.5,0.5,1.4,1.6,2.7C17.2,22.4,18,21.6,18,20.6"/>
		<path class="st0" d="M39.5,23.1c1.1-1.3,1.6-2.2,1.6-2.7c0-0.4-0.2-0.8-0.6-1.1c-0.4-0.3-0.9-0.5-1.4-0.5c-0.5,0-1,0.2-1.4,0.5
			c-0.4,0.3-0.6,0.8-0.6,1.3C37.2,21.6,38,22.4,39.5,23.1"/>
		<path class="st0" d="M44.1,35.3c0.7-0.7,1.1-1.6,1.1-2.6c0-1.7-1.2-3.1-3.6-4.1L37,34.5c1.1,1.2,2.6,1.8,4.1,1.9
			C42.2,36.4,43.3,36,44.1,35.3"/>
		<path class="st0" d="M26.4,36.6h2.5l2-2.5c-1.2-1.4-2.2-3-2.9-4.6h-0.7c-0.8,1.7-1.7,3.2-2.9,4.6L26.4,36.6z"/>
		<path class="st0" d="M30.9,0l-0.1,25.5c0.8,1.8,1.8,3.5,3,5.1l3.4-4.4c-2.8-1.5-4.2-3.3-4.2-5.6c0-1.4,0.7-2.8,1.8-3.6
			c1.3-1,3-1.5,4.6-1.4c1.7,0,3.3,0.5,4.7,1.4c1.3,0.9,2,2.4,2,4c-0.1,1.7-0.7,3.3-1.9,4.5c2,0.8,3.7,2.1,5.2,3.7
			c1,1.2,1.5,2.7,1.5,4.2c0,2-0.8,3.9-2.3,5.3c-1.7,1.6-4,2.4-6.3,2.3c-2.9,0-5.7-1.1-7.8-3.2l-2.2,2.7h-9l-2.2-2.7
			c-2.1,2-4.9,3.1-7.8,3.1c-2.3,0.1-4.6-0.7-6.3-2.3c-1.5-1.4-2.4-3.3-2.3-5.3c0-1.5,0.5-3,1.5-4.2c1.4-1.6,3.2-2.9,5.2-3.7
			C10,24.3,9.3,22.7,9.3,21c-0.1-1.6,0.6-3.1,1.9-4c1.4-1,3-1.5,4.7-1.4c1.7-0.1,3.3,0.4,4.6,1.4c1.2,0.8,1.9,2.2,1.8,3.6
			c0,2.3-1.4,4.1-4.2,5.6l3.4,4.4c1.2-1.6,2.1-3.2,2.9-5V0C10.4,1.7-0.1,13.7,0,27.9c-0.1,15.4,12.2,28,27.6,28.1
			C43,55.9,55.4,43.3,55.2,27.9C55.3,13.8,44.9,1.8,30.9,0"/>
		<path class="st0" d="M93.1,43.2c0.5-1.2,0.8-2.5,0.8-3.8l-3.5,0.1c0,0.6-0.1,1.2-0.3,1.8c-0.2,0.6-0.4,1.1-0.8,1.6l-3-3.5
			c1-0.5,1.8-1.3,2.5-2.1c0.6-0.9,0.9-1.9,0.8-3c0-1.3-0.5-2.5-1.5-3.3c-1-0.9-2.3-1.3-3.7-1.2c-1.4,0-2.8,0.5-4,1.4
			c-1,0.9-1.6,2.2-1.5,3.5c0,0.8,0.2,1.5,0.5,2.2c0.4,0.7,0.9,1.4,1.4,2L80.5,39c-1.2,0.7-2.2,1.6-3,2.7c-0.6,1-0.9,2.1-0.9,3.2
			c0,1.6,0.7,3.1,1.9,4.1c1.3,1.3,3.2,1.9,5,1.8c1.3,0,2.6-0.3,3.7-0.9c0.7-0.4,1.4-0.9,1.9-1.5l1.5,1.7l4.8-0.1l-3.8-4.4
			C92.2,44.9,92.7,44.1,93.1,43.2 M83.4,32.9c0.3-0.2,0.6-0.3,1-0.3c0.5-0.1,1,0.1,1.3,0.5c0.3,0.3,0.4,0.7,0.4,1.1
			c0,0.6-0.3,1.2-0.7,1.7c-0.4,0.4-0.8,0.7-1.2,1c-0.4-0.5-0.8-0.9-1.2-1.4c-0.3-0.3-0.4-0.7-0.4-1.2C82.6,33.7,82.9,33.2,83.4,32.9
			 M85.6,46.9c-0.6,0.3-1.2,0.5-1.9,0.5c-0.8,0-1.6-0.3-2.2-0.8c-0.5-0.5-0.8-1.1-0.9-1.9c0-0.6,0.2-1.2,0.5-1.7
			c0.5-0.7,1.2-1.3,2-1.8l3.9,4.6C86.7,46.2,86.2,46.6,85.6,46.9"/>
		<path class="st0" d="M96.7,29.9h6.4l6.1,10.3l6.1-10.3h6.4L112,45.9v10h-5.7V45.8L96.7,29.9z"/>
		<path class="st0" d="M118.2,42.4c0.8-2.4,2.7-4.2,5-5.2c1.3-0.5,2.6-0.7,4-0.7c1.4,0,2.7,0.2,4,0.7c2.4,0.9,4.2,2.8,5.1,5.2
			c0.5,1.3,0.7,2.7,0.7,4.1c0,1.4-0.2,2.8-0.7,4.1c-0.4,1.2-1.1,2.2-2,3.1c-0.9,0.9-1.9,1.6-3.1,2c-1.3,0.5-2.6,0.7-4,0.7
			c-1.4,0-2.7-0.2-4-0.7c-1.1-0.4-2.2-1.1-3.1-2c-0.9-0.9-1.6-2-2-3.1c-0.5-1.3-0.7-2.7-0.7-4.1C117.4,45.1,117.7,43.7,118.2,42.4z
			 M122.9,48.7c0.1,0.7,0.4,1.3,0.8,1.9c0.3,0.6,0.8,1,1.4,1.3c0.7,0.4,1.4,0.5,2.2,0.5c0.8,0,1.5-0.2,2.2-0.5
			c0.6-0.3,1.1-0.8,1.4-1.4c0.4-0.6,0.6-1.2,0.8-1.9c0.1-0.7,0.2-1.5,0.2-2.2c0-0.7-0.1-1.5-0.2-2.2c-0.1-0.7-0.4-1.3-0.8-1.9
			c-0.4-0.5-0.8-1-1.4-1.3c-0.7-0.4-1.4-0.6-2.2-0.5c-0.8,0-1.5,0.2-2.2,0.5c-0.6,0.3-1.1,0.8-1.4,1.4c-0.4,0.6-0.6,1.2-0.8,1.9
			c-0.1,0.7-0.2,1.5-0.2,2.2C122.7,47.3,122.8,48,122.9,48.7z"/>
		<path class="st0" d="M153,55.9v-2.6h-0.1c-0.6,1-1.5,1.9-2.6,2.4c-1,0.5-2.1,0.7-3.2,0.7c-1.2,0-2.3-0.1-3.4-0.5
			c-0.8-0.3-1.6-0.9-2.1-1.5c-0.5-0.7-0.9-1.6-1.1-2.4c-0.2-1.1-0.3-2.1-0.3-3.2V37h5.2v10.7c-0.1,1.2,0.2,2.4,0.7,3.5
			c0.6,0.8,1.6,1.3,2.6,1.2c1.2,0.1,2.3-0.4,3.1-1.3c0.8-1.2,1.1-2.7,1-4.1v-9.9h5.2v18.9H153z"/>
		<path class="st0" d="M169.2,10c0,1.4-1.1,2.6-2.6,2.6c0,0,0,0-0.1,0c-1.4,0-2.6-1.2-2.6-2.6c0-1.4,1.2-2.6,2.6-2.6c0,0,0,0,0,0
			C168,7.4,169.2,8.5,169.2,10C169.2,10,169.2,10,169.2,10z M164.5,10c0,1.1,0.9,2,2,2s2-0.9,2-2s-0.9-2-2-2S164.5,8.9,164.5,10z
			 M166.1,11.4h-0.6V8.8c0.3-0.1,0.7-0.1,1-0.1c0.3,0,0.6,0,0.9,0.2c0.2,0.1,0.3,0.4,0.3,0.6c0,0.3-0.2,0.5-0.5,0.6l0,0
			c0.3,0.1,0.4,0.4,0.5,0.6c0,0.2,0.1,0.4,0.2,0.6h-0.6c-0.1-0.2-0.2-0.4-0.2-0.6c-0.1-0.3-0.2-0.4-0.5-0.4h-0.3L166.1,11.4z
			 M166.1,9.9h0.3c0.3,0,0.6-0.1,0.6-0.4s-0.2-0.4-0.6-0.4c-0.1,0-0.2,0-0.3,0V9.9z"/>
	</g>
</g>
</svg>
