<?xml version="1.0" encoding="utf-8"?>
<!-- Generator: Adobe Illustrator 22.1.0, SVG Export Plug-In . SVG Version: 6.00 Build 0)  -->
<svg version="1.1" id="Layer_1" xmlns="http://www.w3.org/2000/svg" xmlns:xlink="http://www.w3.org/1999/xlink" x="0px" y="0px"
	 viewBox="0 0 14 14" style="enable-background:new 0 0 14 14;" xml:space="preserve">
<style type="text/css">
	.st0{fill:#4D4D4D;}
</style>
<g>
	<path class="st0" d="M7,2.1l1.5,3l0.2,0.4L9,5.5L12.4,6L9.9,8.3L9.7,8.6L9.7,9l0.6,3.3l-3-1.6L7,10.5l-0.4,0.2l-3,1.6L4.3,9
		l0.1-0.4L4.1,8.3L1.6,6L5,5.5l0.4-0.1l0.2-0.4L7,2.1 M7,0.3L4.9,4.8L0,5.4l3.5,3.4l-0.9,4.8L7,11.3l4.3,2.3l-0.9-4.8L14,5.4
		L9.1,4.8L7,0.3L7,0.3z"/>
</g>
</svg>
