<?xml version="1.0" encoding="utf-8"?>
<!-- Generator: Adobe Illustrator 22.0.1, SVG Export Plug-In . SVG Version: 6.00 Build 0)  -->
<svg version="1.1" id="Layer_1" xmlns="http://www.w3.org/2000/svg" xmlns:xlink="http://www.w3.org/1999/xlink" x="0px" y="0px"
	 viewBox="0 0 42 42" style="enable-background:new 0 0 42 42;" xml:space="preserve">
<style type="text/css">
	.st0{fill:none;stroke:#FFFFFF;stroke-width:2;}
	.st1{fill:#FFFFFF;}
</style>
<title>TWITTER_wh</title>
<desc>Created with Sketch.</desc>
<g id="ARTICLE">
	<g id="ARTICLE-Desktop---1024" transform="translate(-756.000000, -908.000000)">
		<g id="SOCIAL" transform="translate(702.000000, 909.000000)">
			<g id="TWITTER_wh" transform="translate(55.000000, 0.000000)">
				<path id="Shape" class="st0" d="M20,40C9,40,0,31,0,20C0,9,9,0,20,0s20,9,20,20C40,31,31,40,20,40z"/>
				<path id="Path" class="st1" d="M22.8,12.2c-1.7,0.6-2.8,2.3-2.7,4.1l0,0.7l-0.7-0.1c-2.5-0.3-4.8-1.4-6.6-3.3l-0.9-0.9l-0.2,0.7
					c-0.5,1.5-0.2,3.1,0.9,4.2c0.6,0.6,0.4,0.7-0.5,0.3c-0.3-0.1-0.6-0.2-0.7-0.2c-0.1,0.1,0.2,1.4,0.5,1.9c0.4,0.7,1.1,1.4,1.9,1.8
					l0.7,0.3l-0.8,0c-0.8,0-0.8,0-0.7,0.3c0.3,0.9,1.4,1.9,2.6,2.3l0.9,0.3l-0.8,0.5c-1.1,0.7-2.4,1-3.7,1c-0.6,0-1.1,0.1-1.1,0.1
					c0,0.1,1.7,0.9,2.7,1.2c3,0.9,6.5,0.5,9.2-1c1.9-1.1,3.8-3.3,4.7-5.5c0.5-1.1,0.9-3.2,0.9-4.2c0-0.7,0-0.7,0.8-1.5
					c0.5-0.5,0.9-0.9,1-1.1c0.1-0.3,0.1-0.3-0.6,0c-1.2,0.4-1.4,0.4-0.8-0.3c0.4-0.5,0.9-1.3,0.9-1.5c0,0-0.2,0-0.4,0.2
					c-0.3,0.1-0.8,0.4-1.2,0.5l-0.8,0.2l-0.7-0.5c-0.4-0.3-0.9-0.5-1.2-0.6C24.5,11.9,23.4,12,22.8,12.2z"/>
			</g>
		</g>
	</g>
</g>
</svg>
